<mxfile host="app.diagrams.net" modified="2023-06-23T21:17:11.310Z" agent="5.0 (Windows NT 10.0; Win64; x64) AppleWebKit/537.36 (KHTML, like Gecko) Chrome/114.0.0.0 Safari/537.36" etag="obo5dRtWnzDaykPK7yyR" version="20.2.4" type="github">
  <diagram id="mg87L2isnCtNEI91uWKn" name="Page-1">
    <mxGraphModel dx="1038" dy="1867" grid="1" gridSize="10" guides="1" tooltips="1" connect="1" arrows="1" fold="1" page="1" pageScale="1.2" pageWidth="850" pageHeight="1100" math="0" shadow="0">
      <root>
        <mxCell id="0" />
        <mxCell id="1" parent="0" />
        <mxCell id="e1gsD_GnRD3h6fmg7V_t-37" style="edgeStyle=orthogonalEdgeStyle;shape=link;rounded=0;orthogonalLoop=1;jettySize=auto;html=1;exitX=1;exitY=0.5;exitDx=0;exitDy=0;exitPerimeter=0;entryX=0;entryY=0.5;entryDx=0;entryDy=0;entryPerimeter=0;strokeColor=#1A1A1A;" edge="1" parent="1" source="e1gsD_GnRD3h6fmg7V_t-6" target="e1gsD_GnRD3h6fmg7V_t-7">
          <mxGeometry relative="1" as="geometry" />
        </mxCell>
        <mxCell id="e1gsD_GnRD3h6fmg7V_t-6" value="" style="shape=mxgraph.cisco.switches.layer_3_switch;sketch=0;html=1;pointerEvents=1;dashed=0;fillColor=#036897;strokeColor=#ffffff;strokeWidth=2;verticalLabelPosition=bottom;verticalAlign=top;align=center;outlineConnect=0;" vertex="1" parent="1">
          <mxGeometry x="260" y="150" width="64" height="64" as="geometry" />
        </mxCell>
        <mxCell id="e1gsD_GnRD3h6fmg7V_t-7" value="" style="shape=mxgraph.cisco.switches.layer_3_switch;sketch=0;html=1;pointerEvents=1;dashed=0;fillColor=#036897;strokeColor=#ffffff;strokeWidth=2;verticalLabelPosition=bottom;verticalAlign=top;align=center;outlineConnect=0;" vertex="1" parent="1">
          <mxGeometry x="486" y="150" width="64" height="64" as="geometry" />
        </mxCell>
        <mxCell id="e1gsD_GnRD3h6fmg7V_t-8" value="" style="shape=mxgraph.cisco.routers.router;sketch=0;html=1;pointerEvents=1;dashed=0;fillColor=#036897;strokeColor=#ffffff;strokeWidth=2;verticalLabelPosition=bottom;verticalAlign=top;align=center;outlineConnect=0;" vertex="1" parent="1">
          <mxGeometry x="167" y="10" width="78" height="53" as="geometry" />
        </mxCell>
        <mxCell id="e1gsD_GnRD3h6fmg7V_t-12" style="edgeStyle=orthogonalEdgeStyle;rounded=0;orthogonalLoop=1;jettySize=auto;html=1;entryX=1;entryY=0.5;entryDx=0;entryDy=0;entryPerimeter=0;" edge="1" parent="1" source="e1gsD_GnRD3h6fmg7V_t-11" target="e1gsD_GnRD3h6fmg7V_t-8">
          <mxGeometry relative="1" as="geometry" />
        </mxCell>
        <mxCell id="e1gsD_GnRD3h6fmg7V_t-15" style="edgeStyle=orthogonalEdgeStyle;rounded=0;orthogonalLoop=1;jettySize=auto;html=1;exitX=0.2;exitY=0.87;exitDx=0;exitDy=0;exitPerimeter=0;startArrow=none;" edge="1" parent="1" source="e1gsD_GnRD3h6fmg7V_t-38" target="e1gsD_GnRD3h6fmg7V_t-6">
          <mxGeometry relative="1" as="geometry" />
        </mxCell>
        <mxCell id="e1gsD_GnRD3h6fmg7V_t-16" style="edgeStyle=orthogonalEdgeStyle;rounded=0;orthogonalLoop=1;jettySize=auto;html=1;exitX=0.5;exitY=0.99;exitDx=0;exitDy=0;exitPerimeter=0;startArrow=none;" edge="1" parent="1" source="e1gsD_GnRD3h6fmg7V_t-40" target="e1gsD_GnRD3h6fmg7V_t-7">
          <mxGeometry relative="1" as="geometry" />
        </mxCell>
        <mxCell id="e1gsD_GnRD3h6fmg7V_t-11" value="MPLS" style="shape=mxgraph.cisco.storage.cloud;sketch=0;html=1;pointerEvents=1;dashed=0;fillColor=#036897;strokeColor=#ffffff;strokeWidth=2;verticalLabelPosition=bottom;verticalAlign=top;align=center;outlineConnect=0;" vertex="1" parent="1">
          <mxGeometry x="324" y="-70" width="186" height="106" as="geometry" />
        </mxCell>
        <mxCell id="e1gsD_GnRD3h6fmg7V_t-14" style="edgeStyle=orthogonalEdgeStyle;rounded=0;orthogonalLoop=1;jettySize=auto;html=1;" edge="1" parent="1" source="e1gsD_GnRD3h6fmg7V_t-13" target="e1gsD_GnRD3h6fmg7V_t-8">
          <mxGeometry relative="1" as="geometry" />
        </mxCell>
        <mxCell id="e1gsD_GnRD3h6fmg7V_t-13" value="" style="shape=mxgraph.cisco.security.firewall;sketch=0;html=1;pointerEvents=1;dashed=0;fillColor=#036897;strokeColor=#ffffff;strokeWidth=2;verticalLabelPosition=bottom;verticalAlign=top;align=center;outlineConnect=0;" vertex="1" parent="1">
          <mxGeometry x="80" y="3" width="29" height="67" as="geometry" />
        </mxCell>
        <mxCell id="e1gsD_GnRD3h6fmg7V_t-25" style="edgeStyle=orthogonalEdgeStyle;rounded=0;orthogonalLoop=1;jettySize=auto;html=1;exitX=0.17;exitY=0.07;exitDx=0;exitDy=0;exitPerimeter=0;entryX=0;entryY=1;entryDx=0;entryDy=0;entryPerimeter=0;strokeColor=#33FF33;" edge="1" parent="1" source="e1gsD_GnRD3h6fmg7V_t-17" target="e1gsD_GnRD3h6fmg7V_t-6">
          <mxGeometry relative="1" as="geometry" />
        </mxCell>
        <mxCell id="e1gsD_GnRD3h6fmg7V_t-26" style="edgeStyle=orthogonalEdgeStyle;rounded=0;orthogonalLoop=1;jettySize=auto;html=1;exitX=0.5;exitY=0;exitDx=0;exitDy=0;exitPerimeter=0;entryX=0;entryY=1;entryDx=0;entryDy=0;entryPerimeter=0;strokeColor=#00FF00;" edge="1" parent="1" source="e1gsD_GnRD3h6fmg7V_t-17" target="e1gsD_GnRD3h6fmg7V_t-7">
          <mxGeometry relative="1" as="geometry" />
        </mxCell>
        <mxCell id="e1gsD_GnRD3h6fmg7V_t-17" value="SR 630V2&lt;br&gt;FM/FW" style="shape=mxgraph.cisco.servers.standard_host;sketch=0;html=1;pointerEvents=1;dashed=0;fillColor=#036897;strokeColor=#ffffff;strokeWidth=2;verticalLabelPosition=bottom;verticalAlign=top;align=center;outlineConnect=0;" vertex="1" parent="1">
          <mxGeometry x="340" y="280" width="43" height="62" as="geometry" />
        </mxCell>
        <mxCell id="e1gsD_GnRD3h6fmg7V_t-27" style="edgeStyle=orthogonalEdgeStyle;rounded=0;orthogonalLoop=1;jettySize=auto;html=1;exitX=0.17;exitY=0.07;exitDx=0;exitDy=0;exitPerimeter=0;strokeColor=#3333FF;" edge="1" parent="1" source="e1gsD_GnRD3h6fmg7V_t-21">
          <mxGeometry relative="1" as="geometry">
            <mxPoint x="320" y="200" as="targetPoint" />
            <Array as="points">
              <mxPoint x="390" y="284" />
              <mxPoint x="390" y="200" />
            </Array>
          </mxGeometry>
        </mxCell>
        <mxCell id="e1gsD_GnRD3h6fmg7V_t-28" style="edgeStyle=orthogonalEdgeStyle;rounded=0;orthogonalLoop=1;jettySize=auto;html=1;exitX=0.5;exitY=0;exitDx=0;exitDy=0;exitPerimeter=0;entryX=0.5;entryY=1;entryDx=0;entryDy=0;entryPerimeter=0;strokeColor=#3333FF;" edge="1" parent="1" source="e1gsD_GnRD3h6fmg7V_t-21" target="e1gsD_GnRD3h6fmg7V_t-7">
          <mxGeometry relative="1" as="geometry">
            <Array as="points">
              <mxPoint x="442" y="260" />
              <mxPoint x="518" y="260" />
            </Array>
          </mxGeometry>
        </mxCell>
        <mxCell id="e1gsD_GnRD3h6fmg7V_t-21" value="SR 630V2&lt;br&gt;FM/FW" style="shape=mxgraph.cisco.servers.standard_host;sketch=0;html=1;pointerEvents=1;dashed=0;fillColor=#036897;strokeColor=#ffffff;strokeWidth=2;verticalLabelPosition=bottom;verticalAlign=top;align=center;outlineConnect=0;" vertex="1" parent="1">
          <mxGeometry x="410" y="280" width="43" height="62" as="geometry" />
        </mxCell>
        <mxCell id="e1gsD_GnRD3h6fmg7V_t-29" style="edgeStyle=orthogonalEdgeStyle;rounded=0;orthogonalLoop=1;jettySize=auto;html=1;exitX=0.17;exitY=0.07;exitDx=0;exitDy=0;exitPerimeter=0;entryX=0.5;entryY=1;entryDx=0;entryDy=0;entryPerimeter=0;strokeColor=#CC0000;" edge="1" parent="1" source="e1gsD_GnRD3h6fmg7V_t-22" target="e1gsD_GnRD3h6fmg7V_t-6">
          <mxGeometry relative="1" as="geometry">
            <Array as="points">
              <mxPoint x="687" y="240" />
              <mxPoint x="292" y="240" />
            </Array>
          </mxGeometry>
        </mxCell>
        <mxCell id="e1gsD_GnRD3h6fmg7V_t-30" style="edgeStyle=orthogonalEdgeStyle;rounded=0;orthogonalLoop=1;jettySize=auto;html=1;exitX=0.5;exitY=0;exitDx=0;exitDy=0;exitPerimeter=0;entryX=1;entryY=0.5;entryDx=0;entryDy=0;entryPerimeter=0;strokeColor=#CC0000;" edge="1" parent="1" source="e1gsD_GnRD3h6fmg7V_t-22" target="e1gsD_GnRD3h6fmg7V_t-7">
          <mxGeometry relative="1" as="geometry">
            <Array as="points">
              <mxPoint x="702" y="182" />
            </Array>
          </mxGeometry>
        </mxCell>
        <mxCell id="e1gsD_GnRD3h6fmg7V_t-22" value="SR 630V2&lt;br&gt;FM/FW" style="shape=mxgraph.cisco.servers.standard_host;sketch=0;html=1;pointerEvents=1;dashed=0;fillColor=#036897;strokeColor=#ffffff;strokeWidth=2;verticalLabelPosition=bottom;verticalAlign=top;align=center;outlineConnect=0;" vertex="1" parent="1">
          <mxGeometry x="680" y="270" width="43" height="62" as="geometry" />
        </mxCell>
        <mxCell id="e1gsD_GnRD3h6fmg7V_t-31" style="edgeStyle=orthogonalEdgeStyle;rounded=0;orthogonalLoop=1;jettySize=auto;html=1;exitX=0.5;exitY=0;exitDx=0;exitDy=0;exitPerimeter=0;entryX=1;entryY=0;entryDx=0;entryDy=0;entryPerimeter=0;strokeColor=#33FFFF;" edge="1" parent="1" source="e1gsD_GnRD3h6fmg7V_t-23" target="e1gsD_GnRD3h6fmg7V_t-6">
          <mxGeometry relative="1" as="geometry" />
        </mxCell>
        <mxCell id="e1gsD_GnRD3h6fmg7V_t-32" style="edgeStyle=orthogonalEdgeStyle;rounded=0;orthogonalLoop=1;jettySize=auto;html=1;entryX=1;entryY=0;entryDx=0;entryDy=0;entryPerimeter=0;strokeColor=#33FFFF;" edge="1" parent="1" source="e1gsD_GnRD3h6fmg7V_t-23" target="e1gsD_GnRD3h6fmg7V_t-7">
          <mxGeometry relative="1" as="geometry">
            <Array as="points">
              <mxPoint x="803" y="150" />
            </Array>
          </mxGeometry>
        </mxCell>
        <mxCell id="e1gsD_GnRD3h6fmg7V_t-23" value="SR 630V2&lt;br&gt;FM/FW" style="shape=mxgraph.cisco.servers.standard_host;sketch=0;html=1;pointerEvents=1;dashed=0;fillColor=#036897;strokeColor=#ffffff;strokeWidth=2;verticalLabelPosition=bottom;verticalAlign=top;align=center;outlineConnect=0;" vertex="1" parent="1">
          <mxGeometry x="750" y="270" width="43" height="62" as="geometry" />
        </mxCell>
        <mxCell id="e1gsD_GnRD3h6fmg7V_t-45" style="edgeStyle=orthogonalEdgeStyle;rounded=0;orthogonalLoop=1;jettySize=auto;html=1;entryX=0;entryY=0.5;entryDx=0;entryDy=0;entryPerimeter=0;strokeColor=#000000;elbow=vertical;startArrow=none;" edge="1" parent="1" source="e1gsD_GnRD3h6fmg7V_t-46" target="e1gsD_GnRD3h6fmg7V_t-6">
          <mxGeometry relative="1" as="geometry" />
        </mxCell>
        <mxCell id="e1gsD_GnRD3h6fmg7V_t-52" style="edgeStyle=orthogonalEdgeStyle;shape=link;rounded=0;orthogonalLoop=1;jettySize=auto;html=1;entryX=0;entryY=0.5;entryDx=0;entryDy=0;entryPerimeter=0;strokeColor=#000000;elbow=vertical;" edge="1" parent="1" source="e1gsD_GnRD3h6fmg7V_t-33" target="e1gsD_GnRD3h6fmg7V_t-34">
          <mxGeometry relative="1" as="geometry" />
        </mxCell>
        <mxCell id="e1gsD_GnRD3h6fmg7V_t-33" value="H3C" style="shape=mxgraph.cisco.switches.layer_2_remote_switch;sketch=0;html=1;pointerEvents=1;dashed=0;fillColor=#036897;strokeColor=#ffffff;strokeWidth=2;verticalLabelPosition=bottom;verticalAlign=top;align=center;outlineConnect=0;" vertex="1" parent="1">
          <mxGeometry x="260" y="420" width="80" height="50" as="geometry" />
        </mxCell>
        <mxCell id="e1gsD_GnRD3h6fmg7V_t-48" style="edgeStyle=orthogonalEdgeStyle;rounded=0;orthogonalLoop=1;jettySize=auto;html=1;entryX=0.95;entryY=0.94;entryDx=0;entryDy=0;entryPerimeter=0;strokeColor=#000000;elbow=vertical;startArrow=none;" edge="1" parent="1" source="e1gsD_GnRD3h6fmg7V_t-49" target="e1gsD_GnRD3h6fmg7V_t-7">
          <mxGeometry relative="1" as="geometry" />
        </mxCell>
        <mxCell id="e1gsD_GnRD3h6fmg7V_t-34" value="H3C" style="shape=mxgraph.cisco.switches.layer_2_remote_switch;sketch=0;html=1;pointerEvents=1;dashed=0;fillColor=#036897;strokeColor=#ffffff;strokeWidth=2;verticalLabelPosition=bottom;verticalAlign=top;align=center;outlineConnect=0;" vertex="1" parent="1">
          <mxGeometry x="478" y="420" width="80" height="50" as="geometry" />
        </mxCell>
        <mxCell id="e1gsD_GnRD3h6fmg7V_t-38" value="Uplink" style="text;html=1;resizable=0;autosize=1;align=center;verticalAlign=middle;points=[];fillColor=none;strokeColor=none;rounded=0;" vertex="1" parent="1">
          <mxGeometry x="331.5" y="50" width="60" height="30" as="geometry" />
        </mxCell>
        <mxCell id="e1gsD_GnRD3h6fmg7V_t-39" value="" style="edgeStyle=orthogonalEdgeStyle;rounded=0;orthogonalLoop=1;jettySize=auto;html=1;exitX=0.2;exitY=0.87;exitDx=0;exitDy=0;exitPerimeter=0;endArrow=none;" edge="1" parent="1" source="e1gsD_GnRD3h6fmg7V_t-11" target="e1gsD_GnRD3h6fmg7V_t-38">
          <mxGeometry relative="1" as="geometry">
            <mxPoint x="361.20000000000005" y="22.220000000000027" as="sourcePoint" />
            <mxPoint x="292" y="150" as="targetPoint" />
          </mxGeometry>
        </mxCell>
        <mxCell id="e1gsD_GnRD3h6fmg7V_t-40" value="Uplink" style="text;html=1;resizable=0;autosize=1;align=center;verticalAlign=middle;points=[];fillColor=none;strokeColor=none;rounded=0;" vertex="1" parent="1">
          <mxGeometry x="391.5" y="50" width="60" height="30" as="geometry" />
        </mxCell>
        <mxCell id="e1gsD_GnRD3h6fmg7V_t-41" value="" style="edgeStyle=orthogonalEdgeStyle;rounded=0;orthogonalLoop=1;jettySize=auto;html=1;exitX=0.5;exitY=0.99;exitDx=0;exitDy=0;exitPerimeter=0;endArrow=none;" edge="1" parent="1" source="e1gsD_GnRD3h6fmg7V_t-11" target="e1gsD_GnRD3h6fmg7V_t-40">
          <mxGeometry relative="1" as="geometry">
            <mxPoint x="417" y="34.940000000000055" as="sourcePoint" />
            <mxPoint x="518" y="150" as="targetPoint" />
          </mxGeometry>
        </mxCell>
        <mxCell id="e1gsD_GnRD3h6fmg7V_t-46" value="Uplink" style="text;html=1;resizable=0;autosize=1;align=center;verticalAlign=middle;points=[];fillColor=none;strokeColor=none;rounded=0;" vertex="1" parent="1">
          <mxGeometry x="210" y="286" width="60" height="30" as="geometry" />
        </mxCell>
        <mxCell id="e1gsD_GnRD3h6fmg7V_t-47" value="" style="edgeStyle=orthogonalEdgeStyle;rounded=0;orthogonalLoop=1;jettySize=auto;html=1;entryX=0;entryY=0.5;entryDx=0;entryDy=0;entryPerimeter=0;strokeColor=#000000;elbow=vertical;endArrow=none;" edge="1" parent="1" source="e1gsD_GnRD3h6fmg7V_t-33" target="e1gsD_GnRD3h6fmg7V_t-46">
          <mxGeometry relative="1" as="geometry">
            <mxPoint x="300" y="420" as="sourcePoint" />
            <mxPoint x="260" y="182" as="targetPoint" />
          </mxGeometry>
        </mxCell>
        <mxCell id="e1gsD_GnRD3h6fmg7V_t-49" value="Uplink" style="text;html=1;resizable=0;autosize=1;align=center;verticalAlign=middle;points=[];fillColor=none;strokeColor=none;rounded=0;" vertex="1" parent="1">
          <mxGeometry x="498" y="296" width="60" height="30" as="geometry" />
        </mxCell>
        <mxCell id="e1gsD_GnRD3h6fmg7V_t-50" value="" style="edgeStyle=orthogonalEdgeStyle;rounded=0;orthogonalLoop=1;jettySize=auto;html=1;entryX=0.95;entryY=0.94;entryDx=0;entryDy=0;entryPerimeter=0;strokeColor=#000000;elbow=vertical;endArrow=none;" edge="1" parent="1" source="e1gsD_GnRD3h6fmg7V_t-34" target="e1gsD_GnRD3h6fmg7V_t-49">
          <mxGeometry relative="1" as="geometry">
            <mxPoint x="518" y="420" as="sourcePoint" />
            <mxPoint x="546.8" y="210.15999999999985" as="targetPoint" />
          </mxGeometry>
        </mxCell>
        <mxCell id="e1gsD_GnRD3h6fmg7V_t-60" style="edgeStyle=none;rounded=0;orthogonalLoop=1;jettySize=auto;html=1;entryX=0;entryY=1;entryDx=0;entryDy=0;entryPerimeter=0;strokeColor=#000000;elbow=vertical;" edge="1" parent="1" source="e1gsD_GnRD3h6fmg7V_t-57" target="e1gsD_GnRD3h6fmg7V_t-33">
          <mxGeometry relative="1" as="geometry" />
        </mxCell>
        <mxCell id="e1gsD_GnRD3h6fmg7V_t-57" value="" style="shape=mxgraph.rack.ibm.ibm_x3950_x5;html=1;labelPosition=right;align=left;spacingLeft=15;dashed=0;shadow=0;fillColor=#ffffff;" vertex="1" parent="1">
          <mxGeometry x="70" y="530" width="175" height="60" as="geometry" />
        </mxCell>
        <mxCell id="e1gsD_GnRD3h6fmg7V_t-63" style="edgeStyle=none;rounded=0;orthogonalLoop=1;jettySize=auto;html=1;strokeColor=#000000;elbow=vertical;" edge="1" parent="1" source="e1gsD_GnRD3h6fmg7V_t-58" target="e1gsD_GnRD3h6fmg7V_t-33">
          <mxGeometry relative="1" as="geometry" />
        </mxCell>
        <mxCell id="e1gsD_GnRD3h6fmg7V_t-64" style="edgeStyle=none;rounded=0;orthogonalLoop=1;jettySize=auto;html=1;strokeColor=#000000;elbow=vertical;" edge="1" parent="1" source="e1gsD_GnRD3h6fmg7V_t-58" target="e1gsD_GnRD3h6fmg7V_t-34">
          <mxGeometry relative="1" as="geometry" />
        </mxCell>
        <mxCell id="e1gsD_GnRD3h6fmg7V_t-58" value="" style="shape=mxgraph.rack.ibm.ibm_x3950_x5;html=1;labelPosition=right;align=left;spacingLeft=15;dashed=0;shadow=0;fillColor=#ffffff;" vertex="1" parent="1">
          <mxGeometry x="290.5" y="530" width="161" height="60" as="geometry" />
        </mxCell>
        <mxCell id="e1gsD_GnRD3h6fmg7V_t-65" style="edgeStyle=none;rounded=0;orthogonalLoop=1;jettySize=auto;html=1;strokeColor=#000000;elbow=vertical;" edge="1" parent="1" source="e1gsD_GnRD3h6fmg7V_t-59" target="e1gsD_GnRD3h6fmg7V_t-33">
          <mxGeometry relative="1" as="geometry" />
        </mxCell>
        <mxCell id="e1gsD_GnRD3h6fmg7V_t-66" style="edgeStyle=none;rounded=0;orthogonalLoop=1;jettySize=auto;html=1;strokeColor=#000000;elbow=vertical;" edge="1" parent="1" source="e1gsD_GnRD3h6fmg7V_t-59" target="e1gsD_GnRD3h6fmg7V_t-34">
          <mxGeometry relative="1" as="geometry" />
        </mxCell>
        <mxCell id="e1gsD_GnRD3h6fmg7V_t-59" value="" style="shape=mxgraph.rack.ibm.ibm_x3950_x5;html=1;labelPosition=right;align=left;spacingLeft=15;dashed=0;shadow=0;fillColor=#ffffff;" vertex="1" parent="1">
          <mxGeometry x="691" y="530" width="161" height="60" as="geometry" />
        </mxCell>
        <mxCell id="e1gsD_GnRD3h6fmg7V_t-62" style="edgeStyle=none;rounded=0;orthogonalLoop=1;jettySize=auto;html=1;entryX=0;entryY=1;entryDx=0;entryDy=0;entryPerimeter=0;strokeColor=#000000;elbow=vertical;exitX=0.736;exitY=-0.01;exitDx=0;exitDy=0;exitPerimeter=0;" edge="1" parent="1" source="e1gsD_GnRD3h6fmg7V_t-57" target="e1gsD_GnRD3h6fmg7V_t-34">
          <mxGeometry relative="1" as="geometry">
            <mxPoint x="201.66666666666674" y="540" as="sourcePoint" />
            <mxPoint x="270" y="480" as="targetPoint" />
          </mxGeometry>
        </mxCell>
        <mxCell id="e1gsD_GnRD3h6fmg7V_t-68" value="" style="shape=mxgraph.cisco.storage.fc_storage;sketch=0;html=1;pointerEvents=1;dashed=0;fillColor=#036897;strokeColor=#ffffff;strokeWidth=2;verticalLabelPosition=bottom;verticalAlign=top;align=center;outlineConnect=0;" vertex="1" parent="1">
          <mxGeometry x="130" y="660" width="77" height="43" as="geometry" />
        </mxCell>
      </root>
    </mxGraphModel>
  </diagram>
</mxfile>
